<mxfile host="65bd71144e">
    <diagram id="8z6dcW2wJqOH2XDqyycO" name="Page-1">
        <mxGraphModel dx="506" dy="319" grid="1" gridSize="10" guides="1" tooltips="1" connect="1" arrows="1" fold="1" page="1" pageScale="1" pageWidth="850" pageHeight="1100" math="0" shadow="0">
            <root>
                <mxCell id="0"/>
                <mxCell id="1" parent="0"/>
                <mxCell id="4" value="@Input" style="edgeStyle=none;html=1;" parent="1" source="2" target="3" edge="1">
                    <mxGeometry relative="1" as="geometry"/>
                </mxCell>
                <mxCell id="17" value="" style="edgeStyle=none;html=1;" parent="1" source="2" target="16" edge="1">
                    <mxGeometry relative="1" as="geometry"/>
                </mxCell>
                <mxCell id="2" value="User-Management&lt;div&gt;&lt;br&gt;&lt;/div&gt;&lt;div&gt;- load the user data&lt;/div&gt;&lt;div&gt;- store in variables&amp;nbsp; &amp;nbsp;&lt;/div&gt;" style="rounded=1;whiteSpace=wrap;html=1;" parent="1" vertex="1">
                    <mxGeometry x="240" y="230" width="350" height="120" as="geometry"/>
                </mxCell>
                <mxCell id="3" value="user-table" style="rhombus;whiteSpace=wrap;html=1;rounded=1;" parent="1" vertex="1">
                    <mxGeometry x="155" y="430" width="120" height="130" as="geometry"/>
                </mxCell>
                <mxCell id="8" value="" style="edgeStyle=none;html=1;" parent="1" source="5" target="7" edge="1">
                    <mxGeometry relative="1" as="geometry"/>
                </mxCell>
                <mxCell id="5" value="filter-bar" style="rhombus;whiteSpace=wrap;html=1;rounded=1;" parent="1" vertex="1">
                    <mxGeometry x="345" y="430" width="130" height="120" as="geometry"/>
                </mxCell>
                <mxCell id="6" value="@Input" style="edgeStyle=none;html=1;entryX=0.578;entryY=0.05;entryDx=0;entryDy=0;entryPerimeter=0;" parent="1" source="2" target="5" edge="1">
                    <mxGeometry relative="1" as="geometry"/>
                </mxCell>
                <mxCell id="7" value="search-bar + add,delete buttons" style="ellipse;whiteSpace=wrap;html=1;rounded=1;" parent="1" vertex="1">
                    <mxGeometry x="355" y="590" width="120" height="130" as="geometry"/>
                </mxCell>
                <mxCell id="11" value="user-service&lt;div&gt;(logic-layer)&lt;/div&gt;" style="ellipse;shape=cloud;whiteSpace=wrap;html=1;" parent="1" vertex="1">
                    <mxGeometry x="130" y="40" width="150" height="120" as="geometry"/>
                </mxCell>
                <mxCell id="13" style="edgeStyle=none;html=1;" parent="1" edge="1">
                    <mxGeometry relative="1" as="geometry">
                        <mxPoint x="565" y="100" as="sourcePoint"/>
                        <mxPoint x="290" y="100" as="targetPoint"/>
                    </mxGeometry>
                </mxCell>
                <mxCell id="12" value="user-repo&lt;div&gt;&lt;br&gt;&lt;/div&gt;&lt;div&gt;(data-layer)&lt;/div&gt;" style="ellipse;shape=cloud;whiteSpace=wrap;html=1;" parent="1" vertex="1">
                    <mxGeometry x="555" y="40" width="190" height="120" as="geometry"/>
                </mxCell>
                <mxCell id="14" style="edgeStyle=none;html=1;entryX=0.477;entryY=0.033;entryDx=0;entryDy=0;entryPerimeter=0;" parent="1" target="2" edge="1">
                    <mxGeometry relative="1" as="geometry">
                        <mxPoint x="271.5714958153701" y="139.3927169813834" as="sourcePoint"/>
                    </mxGeometry>
                </mxCell>
                <mxCell id="16" value="filter-model" style="rhombus;whiteSpace=wrap;html=1;rounded=1;" parent="1" vertex="1">
                    <mxGeometry x="575" y="435" width="130" height="120" as="geometry"/>
                </mxCell>
            </root>
        </mxGraphModel>
    </diagram>
</mxfile>